<svg width="243" height="318" viewBox="0 0 243 318" fill="none" xmlns="http://www.w3.org/2000/svg">
<g clip-path="url(#clip0_672_10932)">
<g style="mix-blend-mode:multiply">
<path d="M-317.147 18.5285C-311.6 3.27996 -291.244 -1.60343 -275.819 3.46053C-260.396 8.5287 -248.412 20.4453 -235.763 30.6222C-223.114 40.799 -207.685 49.907 -191.612 47.6279C-171.065 44.7142 -156.143 24.1328 -135.491 22.0864C-119.394 20.4896 -104.806 30.8804 -95.3436 43.0144C-89.9927 49.8738 -86.8343 58.4321 -82.0844 65.6972C-60.5359 98.6438 -76.6393 135.251 -53.4919 153.762C-28.4225 173.802 -6.26137 167.916 3.85387 161.153C16.8138 152.488 44.1593 126.801 27.6666 90.8205C20.9666 76.2046 14.7054 61.0734 12.4133 45.1613C8.97896 21.3376 22.7287 -5.37835 45.9386 -11.7663C61.8466 -16.1398 80.3541 -11.2566 94.2149 -20.2067C103.527 -26.2201 108.476 -37.5782 108.769 -48.6654C109.061 -59.7484 105.245 -70.5833 100.11 -80.4066" stroke="#8A8A8A" stroke-miterlimit="10"/>
<path d="M-316.869 19.5689C-310.558 4.18933 -289.962 -1.36347 -273.955 3.61446C-258.329 8.47257 -246.092 20.4761 -233.598 30.9566C-221.25 41.3152 -206.465 50.7057 -190.817 49.1664C-170.818 47.18 -155.742 28.1082 -135.178 26.1818C-118.815 24.6891 -104.032 34.0732 -93.901 45.6283C-88.0821 52.2694 -84.2578 60.7636 -79.2194 68.2452C-57.8472 99.9637 -72.9658 135.622 -50.3409 153.771C-26.0003 173.279 -4.29415 168.086 5.95249 161.576C18.9386 153.328 45.1791 128.524 30.0828 93.5701C23.8579 79.1595 18.1029 64.0581 15.9029 48.2887C12.6182 25.068 25.6891 -0.797996 47.9482 -7.51202C63.3499 -12.1547 81.4713 -7.99512 95.2143 -16.798C104.628 -22.802 109.865 -33.8165 110.726 -44.6933C111.601 -55.6695 108.554 -66.6121 103.946 -76.6977" stroke="#909090" stroke-miterlimit="10"/>
<path d="M-316.594 20.6136C-309.525 5.10505 -288.684 -1.11504 -272.092 3.76843C-256.271 8.42275 -243.774 20.5006 -231.435 31.2954C-219.387 41.8356 -205.242 51.5108 -190.019 50.7072C-170.574 49.6501 -155.34 32.0414 -134.858 30.2859C-118.237 28.861 -103.228 37.2706 -92.4479 48.2531C-86.1483 54.6716 -81.6772 63.1079 -76.3439 70.8039C-55.199 101.321 -69.2839 135.997 -47.1836 153.788C-23.5676 172.767 -2.32272 168.257 8.05738 162.008C21.0634 154.179 46.2181 130.24 32.5074 96.3346C26.7598 82.1251 21.5046 67.0557 19.3987 51.4248C16.2701 28.8049 28.6644 3.78462 49.9619 -3.24495C64.8594 -8.16109 82.5927 -4.72087 96.22 -13.3701C105.738 -19.369 111.264 -30.0441 112.691 -40.7063C114.149 -51.5821 111.873 -62.6302 107.791 -72.9739" stroke="#959595" stroke-miterlimit="10"/>
<path d="M-316.319 21.6582C-308.49 6.01644 -287.414 -0.860421 -270.228 3.92232C-254.211 8.37922 -241.45 20.5229 -229.27 31.6299C-217.522 42.3412 -204.024 52.3136 -189.224 52.2456C-170.327 52.1159 -154.943 36.0041 -134.546 34.3855C-117.661 33.0477 -102.415 40.4615 -91.0075 50.8712C-84.2166 57.0673 -79.1135 65.4435 -73.479 73.3624C-52.604 102.7 -65.6084 136.375 -44.0328 153.806C-21.1413 172.256 -0.357712 168.431 10.1559 162.441C23.1775 155.019 47.2677 131.936 34.9235 99.0947C29.6511 85.0694 24.9381 70.0429 22.8903 54.5586C19.9751 32.5316 31.6355 8.35443 51.9778 1.01783C66.3732 -4.17595 83.6953 -1.48289 97.2257 -9.95289C106.83 -15.9659 112.673 -26.2823 114.659 -36.7235C116.706 -47.5052 115.193 -58.6484 111.642 -69.2523" stroke="#9B9B9B" stroke-miterlimit="10"/>
<path d="M-316.041 22.6986C-307.453 6.92366 -286.141 -0.603601 -268.365 4.07624C-252.156 8.34417 -239.127 20.5389 -227.107 31.9686C-215.655 42.8532 -202.806 53.1165 -188.427 53.7905C-170.083 54.5859 -154.541 39.9689 -134.229 38.4937C-117.079 37.2429 -101.577 43.6549 -89.5588 53.5042C-82.2701 59.4759 -76.5435 67.7982 -70.6078 75.9295C-50.0411 104.11 -61.9287 136.765 -40.8756 153.834C-18.7065 171.75 1.60517 168.609 12.2606 162.883C25.2959 155.873 48.3387 133.621 37.3437 101.868C32.5488 88.0223 28.3502 73.051 26.3818 57.7031C23.6396 36.275 34.6108 12.9264 53.9893 5.28908C67.8912 -0.188631 84.806 1.79122 98.2271 -6.52721C107.927 -12.5394 114.087 -22.5184 116.62 -32.7387C119.27 -43.4304 118.505 -54.6645 115.483 -65.5307" stroke="#A0A0A0" stroke-miterlimit="10"/>
<path d="M-315.766 23.7433C-306.416 7.84154 -284.869 -0.342501 -266.501 4.23023C-250.102 8.31339 -236.805 20.555 -224.943 32.3032C-213.784 43.3568 -201.586 53.947 -187.633 55.3291C-169.841 57.092 -154.142 43.9381 -133.911 42.5913C-116.496 41.434 -100.724 46.8293 -88.112 56.1204C-80.3128 61.8635 -73.9798 70.1339 -67.7386 78.4796C-47.5185 105.526 -58.2489 137.134 -37.7247 153.842C-16.2802 171.229 3.56603 168.771 14.3592 163.306C27.4059 156.7 49.4227 135.259 39.7577 104.621C35.4445 90.9477 31.754 76.0338 29.8713 60.8307C27.2958 40.0035 37.5864 17.4667 55.9989 9.5434C69.4074 3.77116 85.9169 5.04418 99.2286 -3.11209C109.026 -9.11705 115.508 -18.767 118.581 -28.7644C121.839 -39.3746 121.816 -50.6976 119.328 -61.8175" stroke="#A6A6A6" stroke-miterlimit="10"/>
<path d="M-315.491 24.7879C-305.381 8.75299 -283.602 -0.0730157 -264.638 4.38416C-248.051 8.28679 -234.476 20.5689 -222.775 32.6441C-211.909 43.8624 -200.366 54.7563 -186.832 56.8761C-169.595 59.5685 -153.734 47.9115 -133.593 46.6995C-115.916 45.6335 -99.8601 50.0039 -86.6611 58.7492C-78.3493 64.2596 -71.4183 72.4843 -64.8652 81.0425C-45.0173 106.973 -54.567 137.52 -34.5654 153.866C-13.8496 170.72 5.52688 168.942 16.4619 163.742C29.5159 157.538 50.5387 136.887 42.1781 107.384C38.3489 93.8667 35.162 79.0293 33.3672 63.9667C30.9583 43.7405 40.5706 22.0006 58.0148 13.8062C70.9362 7.73743 87.0362 8.31206 100.234 0.305206C110.131 -5.69677 116.945 -15.0176 120.544 -24.7838C124.418 -35.3081 125.131 -46.7178 123.17 -58.1001" stroke="#ABABAB" stroke-miterlimit="10"/>
<path d="M-315.215 25.8325C-304.348 9.66863 -282.333 0.20281 -262.777 4.54229C-246.001 8.26436 -232.149 20.5764 -220.615 32.987C-210.035 44.3617 -199.154 55.5718 -186.039 58.4188C-169.355 62.0469 -153.339 51.889 -133.28 50.8056C-115.336 49.8329 -98.9878 53.1615 -85.2186 61.3737C-76.3835 66.6408 -68.8674 74.8346 -62.0003 83.6011C-42.5543 108.433 -50.8915 137.897 -31.4187 153.883C-11.4275 170.207 7.47722 169.103 18.5563 164.173C31.6132 158.37 51.6718 138.492 44.5921 110.148C41.2533 96.7751 38.5637 82.0267 36.8525 67.1026C34.606 47.4752 43.5464 26.5196 60.0201 18.0689C72.4567 11.6887 88.1449 11.5798 101.234 3.72449C111.23 -2.2745 118.385 -11.2619 122.503 -20.8054C127.006 -31.2479 128.444 -42.7446 127.009 -54.3849" stroke="#B1B1B1" stroke-miterlimit="10"/>
<path d="M-314.938 26.873C-303.311 10.5759 -281.066 0.472313 -260.911 4.69202C-243.948 8.24415 -229.814 20.5777 -218.448 33.3173C-208.156 44.8484 -197.934 56.3705 -185.243 59.9531C-169.112 64.5106 -152.934 55.8561 -132.966 54.9011C-114.759 54.026 -98.1111 56.3001 -83.7718 63.9899C-74.4112 69.0095 -66.3186 77.1786 -59.129 86.1576C-40.1106 109.91 -47.2096 138.272 -28.2615 153.899C-8.99268 169.691 9.42966 169.26 20.6611 164.604C33.7148 159.193 52.8517 140.068 47.0146 112.906C44.1705 99.6688 41.9696 85.0158 40.3504 70.2344C38.2642 51.21 46.5329 31.0176 62.0381 22.3276C73.9879 15.6296 89.2685 14.8392 102.242 7.13753C112.336 1.14575 119.843 -7.51233 124.468 -16.8289C129.608 -27.1854 131.762 -38.7691 130.858 -50.6696" stroke="#B7B7B7" stroke-miterlimit="10"/>
<path d="M-314.663 27.9176C-302.272 11.4895 -279.801 0.756626 -259.05 4.85019C-241.903 8.23021 -227.481 20.5833 -216.287 33.6602C-206.28 45.3435 -196.72 57.1818 -184.448 61.5023C-168.872 66.9891 -152.532 59.8422 -132.649 59.0093C-114.173 58.234 -97.2197 59.441 -82.3273 66.6208C-72.4327 71.3866 -63.7784 79.5394 -56.262 88.7225C-37.6904 111.411 -43.5384 138.658 -25.1086 153.925C-6.56431 169.186 11.382 169.428 22.7617 165.044C35.8143 160.021 54.0635 141.634 49.4306 115.677C47.0919 102.565 45.3711 88.024 43.8377 73.3767C41.914 54.9512 49.5068 35.5091 64.0454 26.5967C75.5148 19.5683 90.3835 18.1155 103.241 10.5674C113.439 4.5808 121.297 -3.74376 126.427 -12.8399C132.212 -23.106 135.07 -34.7873 134.697 -46.9438" stroke="#BCBCBC" stroke-miterlimit="10"/>
<path d="M-314.387 28.9623C-301.239 12.4052 -278.536 1.04095 -257.186 5.00416C-239.856 8.22266 -225.144 20.5804 -214.122 33.9948C-204.396 45.8324 -195.5 57.9805 -183.654 63.0408C-168.632 69.457 -152.133 63.8219 -132.337 63.109C-113.599 62.4356 -96.3344 62.5628 -80.8826 69.2412C-70.4562 73.7468 -61.2424 81.8982 -53.395 91.2769C-35.2936 112.917 -39.8607 139.031 -21.9619 153.942C-4.14224 168.674 13.3218 169.578 24.8538 165.48C37.9011 160.842 55.3052 143.172 51.8403 118.439C50.0199 105.437 48.7643 91.0172 47.3229 76.5127C45.5553 58.688 52.4724 39.9751 66.0507 30.8594C77.0355 23.4879 91.4942 21.3896 104.236 13.9846C114.531 8.00518 122.76 0.0185675 128.382 -8.86356C134.821 -19.035 138.377 -30.8119 138.531 -43.2307" stroke="#C2C2C2" stroke-miterlimit="10"/>
<path d="M-314.11 30.0028C-300.202 13.3125 -277.274 1.32948 -255.32 5.1539C-237.804 8.20667 -222.8 20.5754 -211.957 34.3293C-202.508 46.3128 -194.286 58.7813 -182.855 64.5815C-168.39 71.9207 -151.729 67.8038 -132.017 67.213C-113.013 66.6436 -95.4363 65.6804 -79.4337 71.8637C-68.4711 76.1007 -58.7085 84.2611 -50.5237 93.8334C-32.9095 114.438 -36.1788 139.406 -18.8047 153.959C-1.71376 168.159 15.2744 169.724 26.9587 165.911C40.0028 161.655 56.6065 144.687 54.2649 121.203C52.9776 108.304 52.1659 94.0147 50.8188 79.6488C49.205 62.4291 55.4425 44.4221 68.0665 35.1223C78.5585 27.3926 92.6177 24.6596 105.246 17.4041C115.645 11.4298 124.24 3.7895 130.349 -4.88077C137.451 -14.9532 141.698 -26.8343 142.382 -39.509" stroke="#C7C7C7" stroke-miterlimit="10"/>
<path d="M-313.835 31.0473C-299.165 14.2302 -276.013 1.62216 -253.459 5.312C-235.762 8.20747 -220.457 20.5704 -209.794 34.668C-200.617 46.7995 -193.067 59.5841 -182.062 66.1242C-168.15 74.3886 -151.328 71.7898 -131.706 71.3126C-112.436 70.8472 -94.5466 68.7831 -77.9891 74.484C-66.4922 78.446 -56.1874 86.6281 -47.6587 96.392C-30.5447 115.975 -32.5332 139.822 -15.6538 153.978C0.686912 167.678 17.2164 169.87 29.0572 166.345C42.0919 162.461 57.9524 146.188 56.681 123.964C55.9482 111.156 55.5634 97.01 54.3104 82.7826C52.8485 66.1617 58.3979 48.8456 70.076 39.3871C80.0752 31.2888 93.7328 27.9358 106.243 20.8275C116.744 14.8626 125.713 7.56245 132.306 -0.898124C140.074 -10.8695 145.007 -22.8525 146.219 -35.7896" stroke="#CDCDCD" stroke-miterlimit="10"/>
<path d="M-313.559 32.092C-298.13 15.1417 -274.751 1.92127 -251.596 5.46594C-233.712 8.20628 -218.111 20.5612 -207.631 35.0067C-198.729 47.2799 -191.849 60.387 -181.268 67.6627C-167.907 76.8523 -150.927 75.7759 -131.39 75.4144C-111.856 75.0573 -93.6527 71.8774 -76.5466 77.1085C-64.5113 80.7871 -53.677 89.0056 -44.7939 98.9505C-28.1948 117.521 -28.8598 140.203 -12.5072 153.994C3.10897 167.165 19.1562 170.01 31.1514 166.776C44.1767 163.265 59.3471 147.677 59.0908 126.726C58.9378 114.001 58.9502 100.005 57.7956 85.9185C56.4834 69.9006 61.3343 53.2541 72.0813 43.6498C81.5751 35.1658 94.8457 31.2057 107.243 24.2469C117.845 18.2913 127.192 11.344 134.262 3.08456C142.702 -6.77288 148.318 -18.875 150.059 -32.068" stroke="#D2D2D2" stroke-miterlimit="10"/>
<path d="M-313.284 33.1367C-297.097 16.0574 -273.49 2.22461 -249.732 5.61989C-231.663 8.20508 -215.756 20.5457 -205.468 35.3455C-196.832 47.7646 -190.629 61.1857 -180.471 69.2076C-167.663 79.3223 -150.523 79.7683 -131.077 79.5205C-111.279 79.2716 -92.7629 74.9695 -75.0999 79.7352C-62.5304 83.1283 -51.1731 91.3958 -41.9205 101.513C-25.8515 119.09 -25.1759 140.585 -9.34787 154.018C5.54372 166.659 21.1067 170.15 33.2584 167.214C46.2785 164.067 60.8095 149.168 61.5131 129.494C61.9656 116.856 62.3474 103.011 61.2893 89.0588C60.1203 73.6458 64.2666 57.6499 74.095 47.9169C83.0708 39.0301 95.969 34.4863 108.246 27.6683C118.948 21.7263 128.68 15.1298 136.225 7.06518C145.344 -2.67406 151.629 -14.8975 153.902 -28.3506" stroke="#D8D8D8" stroke-miterlimit="10"/>
<path d="M-313.007 34.1771C-296.06 16.9646 -272.223 2.5259 -247.869 5.77386C-229.616 8.20813 -213.398 20.5324 -203.303 35.68C-194.936 48.2387 -189.409 61.9844 -179.677 70.7462C-167.418 81.7818 -150.122 83.7544 -130.761 83.6224C-110.695 83.4838 -91.873 78.0511 -73.6553 82.3556C-60.5472 85.4546 -48.6755 93.7881 -39.0535 104.068C-23.5229 120.657 -21.5024 140.956 -6.19905 154.03C7.97013 166.138 23.0425 170.277 35.3548 167.641C48.3655 164.857 62.3187 150.651 63.9272 132.248C65.0274 119.696 65.7344 105.996 64.7788 92.1863C63.7554 77.3741 67.1758 62.018 76.1046 52.1712C84.5435 42.8667 97.0884 37.7542 109.243 31.0813C120.051 25.1508 130.16 18.9113 138.186 11.0395C147.984 1.429 154.942 -10.9241 157.743 -24.6396" stroke="#DEDEDE" stroke-miterlimit="10"/>
<path d="M-312.731 35.2217C-295.02 17.8782 -270.961 2.83556 -246.001 5.92992C-227.567 8.21748 -211.035 20.5212 -201.136 36.0208C-193.026 48.7193 -188.184 62.7852 -178.876 72.2932C-167.163 84.2519 -149.717 87.7532 -130.442 87.7263C-110.109 87.7023 -90.9747 81.1263 -72.2022 84.9802C-58.5618 87.7767 -46.1865 96.1972 -36.1779 106.626C-21.1987 122.242 -17.8162 141.333 -3.03757 154.049C10.4092 165.623 24.9952 170.402 37.4639 168.075C50.4632 165.646 63.8934 152.152 66.356 135.015C68.1441 122.553 69.1296 108.996 68.2789 95.3245C67.3945 81.1151 70.0702 66.3838 78.1247 56.4362C86.0056 46.7031 98.2182 41.0327 110.258 34.5029C121.167 28.5817 131.658 22.7078 140.158 15.0244C150.635 5.54269 158.267 -6.94436 161.598 -20.9158" stroke="#E3E3E3" stroke-miterlimit="10"/>
<path d="M-312.456 36.2664C-293.988 18.7939 -269.701 3.14949 -244.14 6.08809C-225.522 8.22472 -208.67 20.5058 -198.973 36.3596C-191.125 49.1955 -186.947 63.5713 -178.083 73.8359C-166.895 86.6968 -149.32 91.7477 -130.128 91.8324C-109.53 91.923 -90.0933 84.2035 -70.7597 87.6047C-56.5871 90.0988 -43.7146 98.6189 -33.3152 109.189C-18.8916 123.841 -14.1172 141.685 0.11113 154.073C12.8548 165.085 26.9352 170.531 39.5603 168.512C52.5503 166.435 65.5082 153.679 68.77 137.779C71.303 125.432 72.5079 111.997 71.7684 98.4626C71.0231 84.856 72.9372 70.7409 80.1341 60.7011C87.4318 50.5265 99.3373 44.3111 111.257 37.9222C122.27 32.0168 133.144 26.5085 142.117 19.0028C153.277 9.6627 161.578 -2.96681 165.437 -17.2005" stroke="#E9E9E9" stroke-miterlimit="10"/>
<path d="M-312.179 37.3068C-292.95 19.7011 -268.436 3.46555 -242.274 6.23781C-223.471 8.22989 -206.296 20.4841 -196.808 36.6941C-189.211 49.6677 -185.722 64.3722 -177.284 75.3766C-166.649 89.1626 -148.912 95.7423 -129.813 95.9342C-108.95 96.1436 -89.2096 87.266 -69.313 90.2314C-54.6081 92.4229 -41.2577 101.059 -30.4461 111.75C-16.5868 125.454 -10.4374 142.065 3.262 154.092C15.2811 164.574 28.8774 170.646 41.6588 168.946C54.6395 167.22 67.1735 155.242 71.1839 140.544C74.5125 128.337 75.8862 114.999 75.2536 101.599C74.641 88.5969 75.7681 75.0956 82.1394 64.9638C88.8221 54.3369 100.454 47.5938 112.256 41.3415C123.377 35.454 134.628 30.3133 144.074 22.9855C155.915 13.7911 164.885 1.0086 169.273 -13.4811" stroke="#EEEEEE" stroke-miterlimit="10"/>
<path d="M-311.903 38.3515C-291.913 20.619 -267.178 3.78373 -240.411 6.39178C-221.424 8.24353 -203.923 20.4624 -194.643 37.0286C-187.302 50.1377 -184.502 65.1709 -176.488 76.911C-166.4 91.6243 -148.511 99.7708 -129.495 100.032C-108.369 100.402 -88.3238 90.3242 -67.8663 92.8476C-52.6332 94.7238 -38.8115 103.511 -27.5726 114.302C-14.2798 127.063 -6.75341 142.436 6.42134 154.104C17.7159 164.058 30.8281 170.754 43.7657 169.373C56.7415 167.991 68.885 156.85 73.6085 143.297C77.796 131.274 79.2667 117.985 78.7537 104.726C78.2739 92.3294 78.5927 79.4418 84.1595 69.2182C90.1954 58.1387 101.599 50.8852 113.264 44.7546C124.499 38.9041 136.122 34.1183 146.041 26.9577C158.565 17.9155 168.204 4.97987 173.124 -9.76996" stroke="#F4F4F4" stroke-miterlimit="10"/>
<path d="M-311.628 39.3961C-290.878 21.5304 -265.916 4.14633 -238.549 6.54989C-219.382 8.2867 -201.547 20.4471 -192.483 37.3715C-185.388 50.6204 -183.288 65.9822 -175.697 78.4579C-166.164 94.1005 -148.114 103.755 -129.186 104.136C-107.794 104.61 -87.455 93.3843 -66.4238 95.4721C-50.6626 97.033 -36.391 105.991 -24.7078 116.861C-11.9857 128.697 -3.08001 142.817 9.568 154.121C20.1402 163.541 32.7662 170.855 45.86 169.804C58.8288 168.759 70.6087 158.528 76.0225 146.062C81.1339 134.281 82.6301 120.985 82.241 107.868C81.8896 96.0744 81.3769 83.815 86.1669 73.4873C91.5178 61.9569 102.712 54.1656 114.266 48.1802C125.604 42.3349 137.603 37.9379 148 30.9467C161.205 22.0608 171.517 8.96371 176.963 -6.04421" stroke="#F9F9F9" stroke-miterlimit="10"/>
<path d="M-311.353 40.4408C-289.843 22.4419 -264.653 4.43492 -236.686 6.7039C-217.333 8.27498 -199.161 20.4213 -190.32 37.7103C-183.474 51.0926 -182.066 66.7873 -174.901 80.0028C-165.916 96.5728 -147.713 107.741 -128.868 108.244C-107.214 108.82 -86.5777 96.4489 -64.9771 98.0988C-48.6877 99.3445 -33.9918 108.503 -21.8408 119.426C-9.69389 130.346 0.597532 143.201 12.7187 154.151C22.5621 163.039 34.7126 170.972 47.9584 170.249C60.9244 169.542 72.3486 160.299 78.4364 148.837C84.5241 137.374 85.9935 123.995 85.7262 111.015C85.4991 99.8216 84.1312 88.2051 88.1699 77.7649C92.7997 65.7918 103.818 57.4482 115.259 51.6122C126.699 45.7762 139.08 41.766 149.952 34.9379C163.841 26.2147 174.822 12.954 180.799 -2.3141" stroke="white" stroke-miterlimit="10"/>
</g>
<g style="mix-blend-mode:multiply">
<path d="M-187.757 211.504C-196.173 197.623 -187.235 178.703 -173.625 169.859C-160.015 161.015 -143.223 159.151 -127.367 155.671C-111.511 152.191 -94.7521 145.88 -86.461 131.927C-75.8682 114.091 -82.5706 89.5609 -71.2336 72.1851C-62.3971 58.643 -45.1628 53.7875 -29.7763 54.0191C-21.0744 54.15 -12.4274 57.0556 -3.78872 57.9041C35.3922 61.7622 53.8491 97.262 82.7766 90.8264C114.099 83.8588 123.387 62.9 124.447 50.7793C125.805 35.2528 122.905 -2.16209 84.5209 -11.8621C68.9278 -15.8048 53.2151 -20.4095 39.3736 -28.5948C18.6451 -40.8503 6.42789 -68.3137 15.9837 -90.4015C22.5322 -105.537 37.9281 -116.9 39.6303 -133.309C40.7749 -144.334 35.0153 -155.31 26.5584 -162.485C18.1015 -169.66 7.26461 -173.476 -3.61574 -175.634" stroke="white" stroke-miterlimit="10"/>
<path d="M-186.767 211.941C-194.807 197.385 -186.238 177.856 -172.336 168.502C-158.766 159.371 -141.744 157.359 -125.747 154.196C-109.938 151.069 -93.3583 145.433 -84.7602 132.274C-73.788 115.446 -79.2174 91.7467 -67.837 74.5153C-58.7536 60.8335 -42.1824 55.1926 -26.8288 54.5405C-18.0083 54.1683 -8.99222 56.5178 -0.00107647 57.2804C38.1129 60.5085 56.4433 94.6409 84.7612 88.3886C115.215 81.6528 124.755 61.482 126.094 49.4189C127.798 34.1326 124.888 -1.86728 88.1839 -12.0123C73.0526 -16.1925 57.6715 -21.1756 43.9994 -29.3489C23.8367 -41.3474 11.8564 -67.7431 20.5623 -89.2918C26.5854 -104.201 41.1752 -115.715 42.9203 -131.937C44.1356 -143.037 38.8253 -154.019 30.8859 -161.509C22.8751 -169.067 12.4358 -173.558 1.6873 -176.287" stroke="#FBFBFB" stroke-miterlimit="10"/>
<path d="M-185.783 212.379C-193.45 197.147 -185.25 177.015 -171.051 167.142C-157.515 157.734 -140.273 155.563 -124.13 152.719C-108.371 149.939 -91.9687 144.983 -83.0614 132.615C-71.7119 116.798 -75.8998 93.8982 -64.4446 76.8327C-55.1458 62.9896 -39.1911 56.5659 -23.8811 55.0513C-14.9314 54.1654 -5.55691 55.9694 3.78465 56.6397C40.8142 59.2928 59.0356 92.0028 86.7438 85.9336C116.329 79.4297 126.114 60.0491 127.744 48.0435C129.78 33.0017 126.872 -1.60428 91.8469 -12.1732C77.1669 -16.6015 62.1279 -21.9523 48.6253 -30.1136C29.0283 -41.855 17.2851 -67.1938 25.1388 -88.1991C30.6346 -102.889 44.4204 -114.547 46.2064 -130.589C47.49 -141.76 42.627 -152.763 35.2093 -160.556C27.6404 -168.511 17.6049 -173.657 6.98207 -176.965" stroke="#F6F6F6" stroke-miterlimit="10"/>
<path d="M-184.795 212.82C-192.088 196.917 -184.249 176.181 -169.76 165.792C-156.253 156.108 -138.796 153.775 -122.509 151.243C-106.798 148.807 -90.5749 144.535 -81.3606 132.962C-69.6296 118.16 -72.5613 96.0711 -61.048 79.1629C-51.517 65.1672 -36.1871 57.9352 -20.9294 55.5748C-11.8461 54.1669 -2.11964 55.438 7.5787 56.014C43.5213 58.1386 61.6363 89.3796 88.7348 83.4937C117.451 77.2215 127.482 58.6311 129.395 46.6852C131.764 31.8878 128.851 -1.35399 95.5141 -12.3213C81.2791 -17.0063 66.6121 -22.7521 53.2532 -30.8612C34.2542 -42.3984 22.7052 -66.6381 29.7216 -87.0872C34.6858 -101.559 47.6316 -113.364 49.4987 -129.221C50.8232 -140.473 46.4371 -151.493 39.5389 -159.584C32.4141 -167.94 22.7782 -173.743 12.2872 -177.622" stroke="#F2F2F2" stroke-miterlimit="10"/>
<path d="M-183.811 213.259C-190.732 196.679 -183.257 175.353 -168.477 164.436C-155.002 154.481 -137.334 151.974 -120.895 149.77C-105.237 147.668 -89.1875 144.09 -79.6598 133.31C-67.5494 119.514 -69.2164 98.2419 -57.6493 81.4888C-47.8818 67.3426 -33.1787 59.2853 -17.9776 56.0878C-8.75639 54.1493 1.31342 54.9044 11.3728 55.3777C46.2218 57.0182 64.2412 86.7479 90.7258 81.0431C118.576 74.9985 128.848 57.2067 131.053 45.3142C133.749 30.7632 130.829 -1.14189 99.1898 -12.4757C85.3956 -17.4195 71.0898 -23.5287 57.8917 -31.6195C39.4649 -42.9123 28.134 -66.0994 34.3108 -85.988C38.7435 -100.253 50.8809 -112.194 52.8016 -127.864C54.1903 -139.19 50.2644 -150.246 43.8814 -158.627C37.2008 -167.394 27.9622 -173.84 17.6011 -178.296" stroke="#EEEEEE" stroke-miterlimit="10"/>
<path d="M-182.823 213.699C-189.368 196.445 -182.256 174.529 -167.19 163.083C-153.741 152.865 -135.868 150.176 -119.277 148.3C-103.672 146.531 -87.779 143.666 -77.9611 133.661C-65.4482 120.901 -65.8716 100.423 -54.2528 83.8191C-44.2488 69.5224 -30.1701 60.6145 -15.0259 56.6114C-5.66463 54.1382 4.75057 54.3836 15.1627 54.7498C48.9134 55.9465 66.8377 84.1227 92.7168 78.6032C119.698 72.7904 130.21 55.7908 132.707 43.9517C135.729 29.6472 132.796 -0.950986 102.857 -12.6237C89.4931 -17.8371 75.5568 -24.3053 62.5217 -32.3713C44.6672 -43.4197 33.5437 -65.5649 38.8935 -84.8761C42.7885 -98.9422 54.1217 -111.007 56.0938 -126.497C57.5467 -137.896 54.0788 -148.995 48.211 -157.655C41.981 -166.846 33.1398 -173.924 22.9063 -178.953" stroke="#E9E9E9" stroke-miterlimit="10"/>
<path d="M-181.839 214.138C-188.014 196.211 -181.252 173.707 -165.901 161.726C-152.473 151.247 -134.397 148.369 -117.656 146.824C-102.11 145.388 -86.3832 143.225 -76.2581 134.005C-63.3659 122.263 -62.5224 102.596 -50.8583 86.1429C-40.62 71.7 -27.1592 61.9287 -12.0763 57.1286C-2.57689 54.1037 8.1793 53.8585 18.9525 54.1219C51.5962 54.9128 69.4341 81.4973 94.7035 76.1611C120.816 70.5801 131.563 54.3706 134.358 42.5934C137.696 28.5352 134.761 -0.787686 106.524 -12.7718C93.5885 -18.2611 80.0217 -25.0777 67.1559 -33.1211C49.8778 -43.923 38.9471 -65.0391 43.4784 -83.7685C46.8336 -97.6422 57.3668 -109.829 59.3903 -125.127C60.9074 -136.6 57.9082 -147.752 52.5449 -156.681C46.7677 -166.3 38.3151 -174.004 28.2114 -179.61" stroke="#E5E5E5" stroke-miterlimit="10"/>
<path d="M-180.849 214.575C-186.647 195.973 -180.242 172.888 -164.612 160.369C-151.207 149.633 -132.934 146.558 -116.038 145.343C-100.545 144.23 -84.9893 142.777 -74.5593 134.346C-61.2856 123.617 -59.1733 104.769 -47.4616 88.4625C-36.9826 73.8713 -24.1524 63.2196 -9.12867 57.6394C0.510928 54.0586 11.6059 53.3376 22.7424 53.4834C54.2788 53.9003 72.0306 78.8614 96.6903 73.7083C121.939 68.3613 132.91 52.9418 136.008 41.2181C139.657 27.4042 138.119 -4.34273 110.187 -12.9327C97.0086 -16.9878 84.4867 -25.8607 71.7818 -33.8857C55.0738 -44.439 44.3317 -64.5388 48.0592 -82.6736C50.8724 -96.3614 60.6098 -108.656 62.6806 -123.776C64.264 -135.327 61.7357 -146.536 56.8725 -155.726C51.5524 -165.781 43.4865 -174.107 33.5146 -180.284" stroke="#E1E1E1" stroke-miterlimit="10"/>
<path d="M-179.865 215.013C-185.287 195.737 -179.242 172.075 -163.33 159.014C-149.939 148.026 -131.47 144.742 -114.423 143.87C-98.9881 143.079 -83.604 142.336 -72.8649 134.695C-59.2118 124.985 -55.8285 106.951 -44.0714 90.7947C-33.3497 76.0615 -21.1519 64.5125 -6.18113 58.1607C3.59878 54.0134 15.0324 52.8272 26.528 52.8533C56.9549 52.9215 74.6228 76.2338 98.6728 71.264C123.053 66.1488 134.252 51.5215 137.655 39.8576C141.614 26.2921 140.291 -4.52086 113.85 -13.083C100.965 -17.2541 88.9473 -26.6353 76.4054 -34.6357C60.2653 -44.9362 49.6994 -64.0366 52.6313 -81.5619C54.8922 -95.0744 63.8463 -107.472 65.9664 -122.407C67.614 -134.031 65.5652 -145.304 61.1958 -154.752C56.3413 -165.25 48.6555 -174.185 38.8114 -180.946" stroke="#DCDCDC" stroke-miterlimit="10"/>
<path d="M-178.877 215.454C-183.929 195.506 -178.226 171.264 -162.036 157.659C-148.661 146.419 -130.003 142.923 -112.799 142.397C-97.4211 141.927 -82.2082 141.895 -71.1577 135.041C-57.1273 126.342 -52.4688 109.135 -40.6663 93.1186C-29.7039 78.2372 -18.1471 65.7864 -3.22088 58.678C6.69091 53.9599 18.4673 52.3213 30.3306 52.2213C59.6475 51.9727 77.232 73.6043 100.672 68.8178C124.183 63.9343 135.605 50.1013 139.317 38.4888C143.577 25.1674 142.47 -4.66282 117.526 -13.2373C104.924 -17.567 93.4228 -27.4076 81.0439 -35.3938C65.4718 -45.4415 55.0671 -63.5449 57.2248 -80.4605C58.9248 -93.8021 67.1042 -106.297 69.2694 -121.05C70.9854 -132.745 69.4203 -144.09 65.5403 -153.788C61.1578 -164.732 53.8437 -174.28 44.1273 -181.613" stroke="#D8D8D8" stroke-miterlimit="10"/>
<path d="M-177.893 215.893C-182.568 195.27 -177.215 170.461 -160.754 156.303C-147.395 144.815 -128.547 141.103 -111.189 140.922C-95.8688 140.763 -80.825 141.447 -69.4632 135.39C-55.0578 127.707 -49.1198 111.318 -37.274 95.4466C-26.0646 80.4254 -15.155 67.0539 -0.277621 59.1973C9.76614 53.8978 21.8852 51.8278 34.1162 51.5913C62.3209 51.0512 79.8242 70.9768 102.659 66.3756C125.302 61.724 136.942 48.683 140.971 37.1263C145.525 24.051 144.641 -4.75618 121.193 -13.3854C108.868 -17.9245 97.8855 -28.1758 85.6739 -36.1457C70.6697 -45.9406 60.4115 -63.0598 61.8054 -79.355C62.9341 -92.5364 70.3535 -105.116 72.5595 -119.689C74.3461 -131.46 73.269 -142.875 69.8679 -152.823C65.9701 -164.215 59.0149 -174.372 49.4304 -182.277" stroke="#D4D4D4" stroke-miterlimit="10"/>
<path d="M-176.905 216.333C-181.208 195.034 -176.198 169.657 -159.467 154.95C-146.117 143.219 -127.083 139.277 -109.57 139.451C-94.308 139.603 -79.4397 141.006 -67.7624 135.737C-52.9797 129.066 -45.7602 113.502 -33.8816 97.7747C-22.4273 82.6073 -12.1733 68.3107 2.66992 59.7186C12.8372 53.8334 25.3094 51.3429 37.8997 50.9654C64.992 50.1551 82.4143 68.3535 104.639 63.9355C126.413 59.5157 138.271 47.2668 142.616 35.77C147.464 22.9409 144.634 -0.6381 124.854 -13.5315C113.989 -20.6169 102.346 -28.9398 90.2975 -36.8956C75.8591 -46.4335 65.7263 -62.5792 66.3818 -78.2411C66.9285 -91.2623 73.5942 -103.929 75.8475 -118.313C77.7024 -130.155 77.124 -141.65 74.1932 -151.842C70.7845 -163.692 64.186 -174.444 54.7271 -182.928" stroke="#CFCFCF" stroke-miterlimit="10"/>
<path d="M-175.921 216.772C-179.85 194.802 -175.178 168.858 -158.18 153.597C-144.839 141.622 -125.622 137.449 -107.95 137.976C-92.7471 138.432 -78.048 140.562 -66.0616 136.085C-50.9058 130.423 -42.4005 115.686 -30.4829 100.101C-18.7817 84.7934 -9.1873 69.559 5.62594 60.2338C15.9147 53.7564 28.7441 50.858 41.698 50.3312C67.6778 49.2718 85.0273 65.7686 106.635 61.4871C127.55 57.3416 139.608 45.8379 144.273 34.399C149.411 21.8076 146.655 -0.749716 128.525 -13.688C118.079 -21.1447 106.811 -29.7123 94.9361 -37.6538C81.0612 -46.9305 71.037 -62.1114 70.971 -77.1419C70.9167 -90.0074 76.852 -102.755 79.1462 -116.958C81.0717 -128.876 80.9982 -140.443 78.5293 -150.883C75.6223 -163.184 69.3658 -174.543 60.0387 -183.597" stroke="#CBCBCB" stroke-miterlimit="10"/>
<path d="M-174.931 217.209C-178.488 194.562 -174.152 168.058 -156.889 152.236C-143.556 140.017 -124.153 135.604 -106.327 136.496C-91.182 137.253 -76.6563 140.108 -64.3564 136.424C-48.8234 131.774 -39.0345 117.867 -27.082 102.422C-15.1296 86.9776 -6.20763 70.7988 8.58196 60.7489C18.988 53.6773 32.1767 50.3881 45.4964 49.6971C70.3698 48.4077 87.6365 63.1391 108.628 59.0429C128.675 55.1292 140.938 44.4111 145.933 33.0344C151.353 20.6827 148.699 -0.907706 132.201 -13.8424C122.186 -21.6957 111.28 -30.4825 99.5746 -38.412C86.2634 -47.4274 76.3223 -61.6458 75.5644 -76.0405C74.8923 -88.7589 80.1183 -101.576 82.4533 -115.599C84.4494 -127.592 84.885 -139.229 82.8738 -149.919C80.4749 -162.674 74.5518 -174.633 65.3546 -184.265" stroke="#C7C7C7" stroke-miterlimit="10"/>
<path d="M-173.943 217.649C-177.123 194.328 -173.125 167.264 -155.602 150.883C-142.276 138.426 -122.689 133.767 -104.713 135.023C-89.6232 136.076 -75.2731 139.661 -62.662 136.773C-46.7559 133.133 -35.677 120.055 -23.6897 104.75C-11.4861 89.1679 -3.24707 72.0448 11.5252 61.2681C22.04 53.598 35.6006 49.9349 49.2777 49.0648C73.0426 47.5603 90.2245 60.5094 110.606 56.5965C129.784 52.9146 142.253 42.9821 147.572 31.6696C153.269 19.5555 150.754 -1.108 135.858 -13.9906C126.287 -22.2658 115.728 -31.2424 104.192 -39.1598C91.4421 -47.9097 81.5693 -61.168 80.1366 -74.9288C78.8275 -87.4938 83.3612 -100.393 85.735 -114.231C87.8037 -126.294 88.7527 -138.009 87.1928 -148.947C85.3084 -162.157 79.7145 -174.719 70.6492 -184.922" stroke="#C2C2C2" stroke-miterlimit="10"/>
<path d="M-172.959 218.088C-175.763 194.092 -172.101 166.468 -154.315 149.53C-140.989 136.834 -121.226 131.924 -103.094 133.553C-88.0602 134.902 -73.8857 139.215 -60.9569 137.123C-44.6756 134.488 -32.3111 122.247 -20.291 107.076C-7.83399 91.3521 -0.282183 73.2824 14.4791 61.7874C25.1027 53.5188 39.035 49.4924 53.0739 48.4349C75.7322 46.7322 92.823 57.8798 112.603 54.1544C130.913 50.7043 143.578 41.5531 149.236 30.3072C155.213 18.4264 152.873 -1.3501 139.535 -14.1386C130.434 -22.8652 120.201 -31.9999 108.832 -39.9116C96.6442 -48.3961 86.81 -60.688 84.7257 -73.819C82.7563 -86.2266 86.6232 -99.2062 89.0336 -112.866C91.1771 -125.002 92.6438 -136.793 91.5288 -147.977C90.1673 -161.638 84.8963 -174.801 75.9565 -185.583" stroke="#BEBEBE" stroke-miterlimit="10"/>
<path d="M-171.971 218.529C-174.405 193.86 -171.067 165.683 -153.026 148.173C-139.702 135.242 -119.753 130.071 -101.474 132.077C-86.4971 133.716 -72.496 138.766 -59.2561 137.47C-42.5996 135.84 -28.9452 124.439 -16.8944 109.407C-4.18415 93.551 2.6721 74.5198 17.433 62.3068C28.157 53.4352 42.4714 49.0669 56.868 47.8091C78.4216 45.9252 95.4259 55.2524 114.594 51.7145C132.038 48.4919 144.9 40.122 150.89 28.9447C157.138 17.2929 155.026 -1.6279 143.205 -14.2909C134.61 -23.4982 124.66 -32.7597 113.465 -40.6678C101.831 -48.8847 92.0231 -60.2062 89.3128 -72.7156C86.6575 -84.9576 89.8852 -98.0296 92.3322 -111.5C94.5505 -123.71 96.5412 -135.569 95.8648 -147.008C95.0347 -161.115 90.076 -174.889 81.2681 -186.242" stroke="#BABABA" stroke-miterlimit="10"/>
<path d="M-170.987 218.967C-173.044 193.624 -170.036 164.895 -151.743 146.817C-138.417 133.653 -118.29 128.217 -99.8572 130.6C-84.934 132.531 -71.1104 138.282 -57.5573 137.811C-40.5253 137.155 -25.5813 126.625 -13.4978 111.726C-0.532093 95.7351 5.62007 75.7488 20.3806 62.8176C31.2028 53.3368 45.9034 48.6499 60.6537 47.1685C81.1132 45.114 98.01 52.5783 116.577 49.2596C133.143 46.2328 146.202 38.6759 152.537 27.5736C159.053 16.1487 157.224 -1.9413 146.866 -14.4475C138.822 -24.1605 129.107 -33.5195 118.088 -41.4282C107.014 -49.3755 97.2043 -59.714 93.8872 -71.6186C90.5227 -83.6804 93.1367 -96.8531 95.6161 -110.148C97.9091 -122.431 100.424 -134.357 100.186 -146.051C99.8915 -160.602 95.2388 -174.986 86.5607 -186.917" stroke="#B5B5B5" stroke-miterlimit="10"/>
<path d="M-169.999 219.408C-171.684 193.388 -168.998 164.112 -150.452 145.467C-137.122 132.065 -116.817 126.364 -98.2388 129.129C-83.3687 131.341 -69.7188 137.839 -55.8586 138.163C-38.4494 138.518 -22.2133 128.824 -10.1033 114.061C3.12194 97.9362 8.56583 76.9926 23.3302 63.3454C34.2444 53.2575 49.3415 48.2731 64.4456 46.547C83.8087 44.3368 100.608 49.9593 118.566 46.8239C134.264 44.0289 147.509 37.2426 154.189 26.2153C160.971 15.0173 159.481 -2.25631 150.533 -14.5955C143.102 -24.8413 133.557 -34.273 122.723 -42.1779C112.202 -49.8535 102.381 -59.1922 98.4742 -70.5046C94.3769 -82.3715 96.3986 -95.6658 98.9168 -108.776C101.289 -121.131 104.33 -133.118 104.524 -145.074C104.774 -160.066 100.425 -175.066 91.8743 -187.569" stroke="#B1B1B1" stroke-miterlimit="10"/>
<path d="M-169.016 219.847C-170.326 193.156 -167.96 163.329 -149.169 144.111C-135.838 130.477 -115.35 124.502 -96.6246 127.656C-81.8035 130.152 -68.3335 137.397 -54.162 138.508C-36.3734 139.871 -18.82 131.035 -6.71307 116.382C6.80337 100.157 11.499 78.2192 26.2756 63.8604C37.2795 53.1695 52.7795 47.9069 68.2334 45.9127C86.5064 43.5553 103.203 47.3276 120.551 44.3753C135.38 41.8121 148.814 35.7923 155.838 24.8506C162.886 13.8731 161.804 -2.57504 154.196 -14.7458C147.443 -25.5492 138.005 -35.0223 127.346 -42.9278C117.38 -50.3253 107.532 -58.6516 103.048 -69.3971C98.1886 -81.0419 99.6754 -94.4764 102.201 -107.413C104.673 -119.839 108.218 -131.887 108.85 -144.104C109.641 -159.532 105.592 -175.15 97.1711 -188.231" stroke="#ADADAD" stroke-miterlimit="10"/>
<path d="M-168.025 220.283C-168.964 192.916 -166.885 162.569 -147.878 142.75C-134.523 128.904 -113.876 122.627 -95.0018 126.177C-80.2339 128.954 -66.9375 136.946 -52.4548 138.854C-34.2889 141.228 -15.4604 133.219 -3.30796 118.706C10.4576 102.337 14.4406 79.4502 29.2338 64.3713C40.3212 53.0689 56.2407 47.5685 72.0275 45.2764C89.221 42.7825 105.808 44.6959 122.542 41.9248C136.506 39.5955 150.114 34.3398 157.492 23.4775C164.8 12.7183 164.199 -2.87826 157.865 -14.9087C151.88 -26.2773 142.451 -35.7779 131.978 -43.6945C122.561 -50.8118 112.683 -58.1004 107.636 -68.3042C101.994 -79.6995 102.931 -93.3083 105.497 -106.064C108.038 -118.562 112.124 -130.669 113.184 -143.152C114.525 -159.011 110.769 -175.256 102.481 -188.907" stroke="#A8A8A8" stroke-miterlimit="10"/>
<path d="M-167.041 220.722C-167.603 192.68 -165.872 161.762 -146.591 141.397C-133.247 127.301 -112.401 120.759 -93.3854 124.7C-78.6622 127.751 -65.5479 136.496 -50.756 139.195C-32.2128 142.58 -12.1028 135.396 0.0865413 121.03C14.0949 104.518 17.3717 80.6812 32.1835 64.8885C43.3522 52.9788 59.6993 47.2661 75.8195 44.6442C91.9396 42.0223 108.406 42.0663 124.535 39.4806C137.631 37.3831 151.421 32.8853 159.152 22.1129C166.719 11.5657 166.667 -3.12791 161.539 -15.0589C156.414 -26.9877 146.901 -36.5208 136.615 -44.4485C127.746 -51.2856 117.834 -57.5069 112.221 -67.1966C105.786 -78.3107 106.18 -92.1276 108.794 -104.694C111.409 -117.265 116.034 -129.427 117.517 -142.177C119.414 -158.466 115.949 -175.333 107.786 -189.564" stroke="#A4A4A4" stroke-miterlimit="10"/>
</g>
</g>
<defs>
<clipPath id="clip0_672_10932">
<rect width="435" height="492" fill="white" transform="translate(-145.235 -319) rotate(27.0525)"/>
</clipPath>
</defs>
</svg>
